<svg width="30" height="28" viewBox="0 0 30 28" fill="none" xmlns="http://www.w3.org/2000/svg">
<path d="M22.9701 13.9656C22.9701 13.6841 23.1784 13.4613 23.4398 13.4055C26.3421 12.7838 28.3444 10.4414 28.3444 7.73096C28.3444 4.53377 25.5151 1.89828 21.9942 1.89828C18.9911 1.89828 16.3868 3.86133 15.7795 6.53256C15.7167 6.80917 15.4611 6.9848 15.1916 6.9848C14.922 6.9848 14.6664 6.80917 14.6036 6.53257C13.9961 3.86133 11.3918 1.89828 8.38872 1.89828C4.86781 1.89828 2.03853 4.53377 2.03853 7.73096C2.03853 10.4414 4.04086 12.7838 6.94316 13.4055C7.20453 13.4613 7.41283 13.6841 7.41283 13.9656C7.41283 14.2471 7.20444 14.47 6.94298 14.5257C4.04078 15.1474 2.03853 17.4898 2.03853 20.2002C2.03853 23.3974 4.86781 26.0329 8.38872 26.0329C11.3918 26.0329 13.996 24.0699 14.6036 21.3988L22.9701 13.9656ZM22.9701 13.9656C22.9701 14.247 23.1784 14.4699 23.4398 14.5256M22.9701 13.9656L23.4398 14.5256M23.4398 14.5256C26.3421 15.1473 28.3444 17.4897 28.3444 20.2002C28.3444 23.3974 25.5151 26.0329 21.9942 26.0329C18.9911 26.0329 16.3868 24.0698 15.7795 21.3986C15.7167 21.122 15.4611 20.9464 15.1916 20.9464C14.922 20.9464 14.6664 21.122 14.6036 21.3986L23.4398 14.5256ZM29.5478 7.73096C29.5478 3.8626 26.1398 0.75 21.9942 0.75C19.0674 0.75 16.433 2.33095 15.1915 4.69818C13.9499 2.33095 11.3154 0.75 8.38872 0.75C4.2431 0.75 0.835083 3.8626 0.835083 7.73096C0.835083 10.4365 2.48554 12.8093 4.99141 13.9656C2.48554 15.1219 0.835083 17.4947 0.835083 20.2002C0.835083 24.0686 4.2431 27.1812 8.38872 27.1812C11.3154 27.1812 13.9499 25.6002 15.1915 23.233C16.433 25.6002 19.0674 27.1812 21.9942 27.1812C26.1398 27.1812 29.5478 24.0686 29.5478 20.2002C29.5478 17.4947 27.8974 15.1219 25.3915 13.9656C27.8974 12.8093 29.5478 10.4365 29.5478 7.73096Z" fill="#3DB370" stroke="#3DB370" stroke-width="0.5"/>
</svg>
